<svg
  xmlns:mydata="http://www.w3.org/2000/svg"
  mydata:contrastcolor="ffffff"
  mydata:template="Default"
  mydata:presentation="2.5"
  mydata:layouttype="undefined"
  mydata:specialfontid="undefined"
  mydata:id1="490"
  mydata:id2="945"
  mydata:companyname="Majesticsoft"
  mydata:companytagline="Software majestuoso 💜"
  version="1.1"
  xmlns="http://www.w3.org/2000/svg"
  xmlns:xlink="http://www.w3.org/1999/xlink"
  viewBox="65 194.53586723121913 420.00000000000006 80.92826553756169"
  class="svg-third-tile"
  style="
    width: 28%;
    inset: auto 50px 50px auto;
    filter: drop-shadow(rgba(0, 0, 0, 0.6) 3px 2px 4px);
  "
>
  <g
    fill="#6519a3"
    fill-rule="nonzero"
    stroke="none"
    stroke-width="1"
    stroke-linecap="butt"
    stroke-linejoin="miter"
    stroke-miterlimit="10"
    stroke-dasharray=""
    stroke-dashoffset="0"
    font-family="none"
    font-weight="none"
    font-size="none"
    text-anchor="none"
    style="mix-blend-mode: normal; fill: rgb(255, 255, 255)"
  >
    <g
      data-paper-data='{"isGlobalGroup":true,"bounds":{"x":65,"y":194.53586723121913,"width":420.00000000000006,"height":80.92826553756169}}'
      style="fill: rgb(255, 255, 255)"
    >
      <g
        data-paper-data='{"isSecondaryText":true}'
        style="fill: rgb(255, 255, 255)"
      >
        <path
          d="M177.72314,255.28631v-1.83203c-1.11189,-0.4255 -2.25102,-0.61624 -3.4842,-0.61624c-0.61265,0 -1.56429,0.04428 -2.28862,0.35801c-0.82411,0.3569 -1.27146,0.98077 -1.27146,1.49534c0,2.16589 5.41746,1.72231 5.41489,2.99386c-0.00026,0.10235 -0.06809,0.2089 -0.22115,0.31887c-1.08277,0.77795 -3.92006,-0.50507 -5.08763,-1.45826v1.98003c2.96756,0.90291 6.48987,0.82548 7.22508,-1.06093c0.05473,-0.14029 0.08205,-0.28667 0.08205,-0.43578c0,-2.14516 -5.18184,-2.08786 -5.47117,-2.80954c-0.49985,-1.24722 3.73815,-0.49222 5.10219,1.06667z"
          data-paper-data='{"glyphName":"S","glyphIndex":0,"firstGlyphOfWord":true,"word":1}'
          style="fill: rgb(255, 255, 255)"
        ></path>
        <path
          d="M184.47645,255.94487c0,1.72531 1.91374,3.12396 4.45477,3.12396c2.54095,0 4.45468,-1.39865 4.45468,-3.12396c0,-1.72531 -1.91374,-3.12396 -4.45468,-3.12396c-2.54103,0 -4.45477,1.39865 -4.45477,3.12396zM191.28691,255.94478c0.08419,0.38936 0.07109,0.7842 -0.05807,1.14735c-0.39861,1.12106 -1.75041,1.51616 -3.01938,0.88253c-0.34996,-0.17472 -0.65701,-0.40957 -0.90985,-0.68142c-0.62558,-0.63209 -0.97306,-1.63238 -0.66609,-2.49572c0.39861,-1.12097 1.75049,-1.51607 3.01947,-0.88244c0.77889,0.38893 1.4783,1.15686 1.63392,2.02971z"
          data-paper-data='{"glyphName":"O","glyphIndex":1,"word":1}'
          style="fill: rgb(255, 255, 255)"
        ></path>
        <path
          d="M199.68424,252.96463c0.27125,0.53813 0.33823,1.24396 0.33823,2.01677v1.9611c0,0.77281 -0.06698,1.47864 -0.33823,2.01677h2.4302c-0.27116,-0.53813 -0.33823,-1.24396 -0.33823,-2.01677v-0.64562h1.45363c0.75868,0.02081 1.39162,0.12539 2.03219,0.48606v-1.67992c-0.64057,0.36075 -1.27351,0.46524 -2.03219,0.48614h-1.45363v-1.70227c1.9301,0 3.03925,0.03494 4.87582,0.6583v-1.58056z"
          data-paper-data='{"glyphName":"F","glyphIndex":2,"word":1}'
          style="fill: rgb(255, 255, 255)"
        ></path>
        <path
          d="M217.38738,258.95936c-0.37197,-0.73812 -0.33823,-1.72428 -0.33823,-2.62454v-2.44956c0.45968,0 1.45714,-0.03632 2.65897,0.65992v-1.58056h-7.0716v1.58056c1.20183,-0.69624 2.19929,-0.65992 2.65897,-0.65992v3.05732c0,0.77281 -0.06706,1.47864 -0.33831,2.01677z"
          data-paper-data='{"glyphName":"T","glyphIndex":3,"word":1}'
          style="fill: rgb(255, 255, 255)"
        ></path>
        <path
          d="M231.99654,256.92572l0.89649,2.03356h1.93044l2.88637,-5.99465h-2.14345c0.53591,1.83451 -0.38833,3.53559 -1.06479,4.94049l-1.39,-3.29534l0.79208,-1.64514h-2.14336c0.53582,1.83451 -0.38842,3.53559 -1.06479,4.94049l-2.08392,-4.94049h-2.16752l2.64287,5.99465h1.93035z"
          data-paper-data='{"glyphName":"W","glyphIndex":4,"word":1}'
          style="fill: rgb(255, 255, 255)"
        ></path>
        <path
          d="M245.13988,252.96463l-3.42227,5.99465h2.14336c-0.47492,-1.20114 -0.19177,-2.0238 1.06239,-2.0238h2.13094l1.12003,2.0238h2.31826l-3.42236,-5.99465zM244.2302,256.26057l1.23155,-2.24177l1.23531,2.24177z"
          data-paper-data='{"glyphName":"A","glyphIndex":5,"word":1}'
          style="fill: rgb(255, 255, 255)"
        ></path>
        <path
          d="M257.01941,252.96463c0.16856,0.33463 0.25832,0.73401 0.302,1.17399v1.82338l-0.00034,1.07506c-0.00548,0.73581 -0.07777,1.40618 -0.33788,1.9223h2.46643c-0.26012,-0.51612 -0.3324,-1.18649 -0.33788,-1.9223h1.5583l1.83006,1.9223h2.6367l-1.85798,-1.95168c2.61315,-0.36461 2.46969,-4.04306 -0.4309,-4.04306zM261.72051,253.88689c1.82937,0 1.82937,2.2279 0,2.2279h-2.60921v-1.13339c0,-0.38568 0.01679,-0.75474 0.06723,-1.09451c0.84732,0 1.69465,0 2.54197,0z"
          data-paper-data='{"glyphName":"R","glyphIndex":6,"word":1}'
          style="fill: rgb(255, 255, 255)"
        ></path>
        <path
          d="M271.45228,252.96463c0.27125,0.53813 0.33823,1.24396 0.33823,2.01677v1.9611c0,0.77281 -0.06698,1.47864 -0.33823,2.01677h7.0716v-1.43436c-1.45954,0.4446 -3.43649,0.51329 -4.97963,0.51329v-1.74133h1.45363c0.75868,0.02081 1.39162,0.12539 2.03219,0.48606v-1.67992c-0.64057,0.36075 -1.27351,0.46524 -2.03219,0.48614h-1.45363v-1.70227c1.9301,0 3.03925,0.03494 4.87582,0.6583v-1.58056z"
          data-paper-data='{"glyphName":"E","glyphIndex":7,"lastGlyphOfWord":true,"word":1}'
          style="fill: rgb(255, 255, 255)"
        ></path>
        <path
          d="M296.26093,256.03865l-2.9727,-3.07402h-1.7164v5.99474h1.2151c-0.27116,-0.53822 -0.33823,-1.24396 -0.33823,-2.01677v-2.13026h0.03674l3.48343,3.47829l0.11151,-0.14106l2.78582,-3.33722v2.13017c0,0.77281 -0.06698,1.47864 -0.33823,2.01677h2.4302c-0.27125,-0.53813 -0.33823,-1.24396 -0.33823,-2.01677v-3.97788h-1.75375z"
          data-paper-data='{"glyphName":"M","glyphIndex":8,"firstGlyphOfWord":true,"word":2}'
          style="fill: rgb(255, 255, 255)"
        ></path>
        <path
          d="M311.08258,252.96463l-3.42227,5.99465h2.14336c-0.47492,-1.20114 -0.19177,-2.0238 1.06239,-2.0238h2.13094l1.12003,2.0238h2.31826l-3.42236,-5.99465zM310.1729,256.26057l1.23155,-2.24177l1.23531,2.24177z"
          data-paper-data='{"glyphName":"A","glyphIndex":9,"word":2}'
          style="fill: rgb(255, 255, 255)"
        ></path>
        <path
          d="M320.16656,261.38965c2.19886,-0.17001 3.80084,-1.49534 3.80084,-3.10537v-0.00086l0.00154,0.00086c-0.00103,-0.06441 -0.00154,-1.10367 -0.00154,-1.16911v-2.13377c0,-0.77281 0.06706,-1.47864 0.33831,-2.01677h-2.43029c0.27125,0.53822 0.33831,1.24396 0.33831,2.01677v2.13994c-0.00009,0.06329 -0.0006,0.12625 -0.00154,0.18868l0.00154,0.00086v1.16825c0,1.28156 -0.93554,2.2219 -2.04718,2.28948z"
          data-paper-data='{"glyphName":"J","glyphIndex":10,"word":2}'
          style="fill: rgb(255, 255, 255)"
        ></path>
        <path
          d="M329.92366,252.96463c0.27125,0.53813 0.33823,1.24396 0.33823,2.01677v1.9611c0,0.77281 -0.06698,1.47864 -0.33823,2.01677h7.0716v-1.43436c-1.45954,0.4446 -3.43649,0.51329 -4.97963,0.51329v-1.74133h1.45363c0.75868,0.02081 1.39162,0.12539 2.03219,0.48606v-1.67992c-0.64057,0.36075 -1.27351,0.46524 -2.03219,0.48614h-1.45363v-1.70227c1.9301,0 3.03925,0.03494 4.87582,0.6583v-1.58056z"
          data-paper-data='{"glyphName":"E","glyphIndex":11,"word":2}'
          style="fill: rgb(255, 255, 255)"
        ></path>
        <path
          d="M350.23819,255.28631v-1.83203c-1.11189,-0.4255 -2.25102,-0.61624 -3.4842,-0.61624c-0.61265,0 -1.56429,0.04428 -2.28862,0.35801c-0.82411,0.3569 -1.27146,0.98077 -1.27146,1.49534c0,2.16589 5.41746,1.72231 5.41489,2.99386c-0.00026,0.10235 -0.06809,0.2089 -0.22115,0.31887c-1.08277,0.77795 -3.92006,-0.50507 -5.08763,-1.45826v1.98003c2.96756,0.90291 6.48987,0.82548 7.22508,-1.06093c0.05473,-0.14029 0.08205,-0.28667 0.08205,-0.43578c0,-2.14516 -5.18184,-2.08786 -5.47117,-2.80954c-0.49985,-1.24722 3.73815,-0.49222 5.10219,1.06667z"
          data-paper-data='{"glyphName":"S","glyphIndex":12,"word":2}'
          style="fill: rgb(255, 255, 255)"
        ></path>
        <path
          d="M361.42042,258.95936c-0.37197,-0.73812 -0.33823,-1.72428 -0.33823,-2.62454v-2.44956c0.45968,0 1.45714,-0.03632 2.65897,0.65992v-1.58056h-7.0716v1.58056c1.20183,-0.69624 2.19929,-0.65992 2.65897,-0.65992v3.05732c0,0.77281 -0.06706,1.47864 -0.33831,2.01677z"
          data-paper-data='{"glyphName":"T","glyphIndex":13,"word":2}'
          style="fill: rgb(255, 255, 255)"
        ></path>
        <path
          d="M371.94359,257.27388v-2.29248c0,-0.08034 0.00069,-0.15999 0.00231,-0.23879c0.01353,-0.66446 0.0895,-1.2694 0.3205,-1.74681c0.00505,-0.01045 0.01019,-0.02081 0.01542,-0.03118h-2.4302c0.15802,0.31348 0.24667,0.68391 0.29318,1.09125c0.0334,0.29198 0.04505,0.60288 0.04505,0.92552v2.26807c0,0.32264 -0.01165,0.63354 -0.04505,0.92552c0.63397,0.58704 2.64432,0.91165 3.55426,0.91165c0.90985,0 2.9202,-0.32461 3.55417,-0.91165c-0.0334,-0.29198 -0.04505,-0.60288 -0.04505,-0.92552v-2.26807c0,-0.32264 0.01165,-0.63354 0.04505,-0.92552c0.04651,-0.40735 0.13515,-0.77778 0.29318,-1.09125h-2.4302c0.00522,0.01036 0.01036,0.02073 0.01542,0.03118c0.231,0.47741 0.30697,1.08235 0.3205,1.74681c0.00163,0.0788 0.00231,0.15845 0.00231,0.23879v2.29248c0,1.22564 -3.51083,1.22564 -3.51083,0z"
          data-paper-data='{"glyphName":"U","glyphIndex":14,"word":2}'
          style="fill: rgb(255, 255, 255)"
        ></path>
        <path
          d="M383.96999,255.94487c0,1.72531 1.91374,3.12396 4.45477,3.12396c2.54095,0 4.45468,-1.39865 4.45468,-3.12396c0,-1.72531 -1.91374,-3.12396 -4.45468,-3.12396c-2.54103,0 -4.45477,1.39865 -4.45477,3.12396zM390.78045,255.94478c0.08419,0.38936 0.07109,0.7842 -0.05807,1.14735c-0.39861,1.12106 -1.75041,1.51616 -3.01938,0.88253c-0.34996,-0.17472 -0.65701,-0.40957 -0.90985,-0.68142c-0.62558,-0.63209 -0.97306,-1.63238 -0.66609,-2.49572c0.39861,-1.12097 1.75049,-1.51607 3.01947,-0.88244c0.77889,0.38893 1.4783,1.15686 1.63392,2.02971z"
          data-paper-data='{"glyphName":"O","glyphIndex":15,"word":2}'
          style="fill: rgb(255, 255, 255)"
        ></path>
        <path
          d="M406.30008,255.28631v-1.83203c-1.11189,-0.4255 -2.25102,-0.61624 -3.4842,-0.61624c-0.61265,0 -1.56429,0.04428 -2.28862,0.35801c-0.82411,0.3569 -1.27146,0.98077 -1.27146,1.49534c0,2.16589 5.41746,1.72231 5.41489,2.99386c-0.00026,0.10235 -0.06809,0.2089 -0.22115,0.31887c-1.08277,0.77795 -3.92006,-0.50507 -5.08763,-1.45826v1.98003c2.96756,0.90291 6.48987,0.82548 7.22508,-1.06093c0.05473,-0.14029 0.08205,-0.28667 0.08205,-0.43578c0,-2.14516 -5.18184,-2.08786 -5.47117,-2.80954c-0.49985,-1.24722 3.73815,-0.49222 5.10219,1.06667z"
          data-paper-data='{"glyphName":"S","glyphIndex":16,"word":2}'
          style="fill: rgb(255, 255, 255)"
        ></path>
        <path
          d="M413.0534,255.94487c0,1.72531 1.91374,3.12396 4.45477,3.12396c2.54095,0 4.45468,-1.39865 4.45468,-3.12396c0,-1.72531 -1.91374,-3.12396 -4.45468,-3.12396c-2.54103,0 -4.45477,1.39865 -4.45477,3.12396zM419.86386,255.94478c0.08419,0.38936 0.07109,0.7842 -0.05807,1.14735c-0.39861,1.12106 -1.75041,1.51616 -3.01938,0.88253c-0.34996,-0.17472 -0.65701,-0.40957 -0.90985,-0.68142c-0.62558,-0.63209 -0.97306,-1.63238 -0.66609,-2.49572c0.39861,-1.12097 1.75049,-1.51607 3.01947,-0.88244c0.77889,0.38893 1.4783,1.15686 1.63392,2.02971z"
          data-paper-data='{"glyphName":"O","glyphIndex":17,"lastGlyphOfWord":true,"word":2}'
          style="fill: rgb(255, 255, 255)"
        ></path>
      </g>
      <g
        data-paper-data='{"isPrimaryText":true}'
        style="fill: rgb(255, 255, 255)"
      >
        <path
          d="M196.41051,231.78476v-20.61684c0,-1.03441 -0.62301,-1.96684 -1.57846,-2.36258c-0.95545,-0.39637 -2.05571,-0.17709 -2.78676,0.55428l-8.50061,8.50061l-8.50061,-8.50061c-0.73105,-0.73137 -1.83067,-0.9497 -2.78676,-0.55428c-0.95545,0.39573 -1.57846,1.32817 -1.57846,2.36258v27.4904c0,1.41224 1.14501,2.55725 2.55725,2.55725c1.41224,0 2.55725,-1.14501 2.55725,-2.55725v-21.31656l15.5033,15.5033v5.81358c0,1.41224 1.14501,2.55725 2.55725,2.55725c1.41224,0 2.55725,-1.14501 2.55725,-2.55725v-6.87196c-0.00064,-0.00064 -0.00064,-0.00128 -0.00064,-0.00192zM187.16095,221.47682l4.13539,-4.13539v8.27045z"
          data-paper-data='{"glyphName":"M","glyphIndex":0,"firstGlyphOfWord":true,"word":1}'
          style="fill: rgb(255, 255, 255)"
        ></path>
        <path
          d="M226.43133,217.2417c-1.28917,0 -2.35235,0.95449 -2.5288,2.19508c-1.95278,-1.38059 -4.33293,-2.19508 -6.90105,-2.19508c-6.60984,0 -11.98709,5.37725 -11.98709,11.98709c0,6.60984 5.37725,11.98709 11.98709,11.98709c2.56811,0 4.94827,-0.81448 6.90105,-2.19508c0.17645,1.24058 1.23963,2.19508 2.5288,2.19508c1.41224,0 2.55725,-1.14501 2.55725,-2.55725v-18.85969c0,-1.41224 -1.14501,-2.55725 -2.55725,-2.55725zM217.00148,236.10139c-3.78952,0 -6.8726,-3.08308 -6.8726,-6.8726c0,-3.78952 3.08308,-6.8726 6.8726,-6.8726c3.78952,0 6.8726,3.08308 6.8726,6.8726c0,3.78952 -3.08308,6.8726 -6.8726,6.8726z"
          data-paper-data='{"glyphName":"a","glyphIndex":1,"word":1}'
          style="fill: rgb(255, 255, 255)"
        ></path>
        <path
          d="M240.44375,217.2417c-1.41224,0 -2.55725,1.14501 -2.55725,2.55725v17.86876c0,3.89532 -3.16907,7.06439 -7.06439,7.06439c-1.41224,0 -2.55725,1.14501 -2.55725,2.55725c0,1.41224 1.14501,2.55725 2.55725,2.55725c6.71533,0 12.17889,-5.46356 12.17889,-12.17889v-17.86876c0,-1.41224 -1.14501,-2.55725 -2.55725,-2.55725zM238.08149,212.14639c0.06393,0.15344 0.14385,0.30367 0.23655,0.44112c0.0927,0.14065 0.20138,0.27171 0.31646,0.38998c0.11827,0.11827 0.24933,0.22376 0.38998,0.31646c0.13745,0.0927 0.28769,0.17261 0.44112,0.23655c0.15344,0.06393 0.31646,0.11188 0.47948,0.14384c0.16302,0.03516 0.33244,0.05115 0.49866,0.05115c0.16622,0 0.33564,-0.01598 0.49866,-0.05115c0.16302,-0.03197 0.32605,-0.07991 0.47948,-0.14384c0.15344,-0.06393 0.30367,-0.14385 0.44112,-0.23655c0.14065,-0.0927 0.27171,-0.19819 0.38998,-0.31646c0.11827,-0.11827 0.22376,-0.24933 0.31646,-0.38998c0.0927,-0.13745 0.17261,-0.28769 0.23655,-0.44112c0.06393,-0.15344 0.11188,-0.31646 0.14384,-0.47948c0.03516,-0.16302 0.05115,-0.33244 0.05115,-0.49866c0,-0.16622 -0.01598,-0.33564 -0.05115,-0.49866c-0.03197,-0.16302 -0.07991,-0.32605 -0.14384,-0.47948c-0.06393,-0.15344 -0.14385,-0.30367 -0.23655,-0.44112c-0.0927,-0.14065 -0.19819,-0.27171 -0.31646,-0.38998c-0.11827,-0.11827 -0.24933,-0.22376 -0.38998,-0.31646c-0.13745,-0.0927 -0.28769,-0.17261 -0.44112,-0.23655c-0.15344,-0.06393 -0.31646,-0.11188 -0.47948,-0.14384c-0.32925,-0.06713 -0.66808,-0.06713 -0.99733,0c-0.16302,0.03197 -0.32605,0.07991 -0.47948,0.14384c-0.15344,0.06393 -0.30367,0.14385 -0.44112,0.23655c-0.14065,0.0927 -0.27171,0.19819 -0.38998,0.31646c-0.11508,0.11827 -0.22376,0.24933 -0.31646,0.38998c-0.0927,0.13745 -0.17261,0.28769 -0.23655,0.44112c-0.06393,0.15344 -0.11188,0.31646 -0.14384,0.47948c-0.03516,0.16302 -0.05115,0.33244 -0.05115,0.49866c0,0.16622 0.01598,0.33564 0.05115,0.49866c0.03197,0.16302 0.07991,0.32605 0.14384,0.47948z"
          data-paper-data='{"glyphName":"j","glyphIndex":2,"word":1}'
          style="fill: rgb(255, 255, 255)"
        ></path>
        <path
          d="M263.59559,217.2417c-6.60984,0 -11.98709,5.37725 -11.98709,11.98709c0,6.60984 5.37725,11.98709 11.98709,11.98709c3.20167,0 6.21187,-1.24666 8.47631,-3.51078c0.9986,-0.9986 0.99892,-2.61766 0,-3.61658c-0.99892,-0.99829 -2.61766,-0.99861 -3.61659,0c-1.29812,1.29812 -3.02394,2.01287 -4.85973,2.01287c-2.88649,0 -5.36286,-1.78847 -6.37937,-4.31535h15.80922c1.41224,0 2.55725,-1.14501 2.55725,-2.55725c0,-6.60984 -5.37725,-11.98709 -11.98709,-11.98709zM257.21622,226.67155c1.01651,-2.52688 3.49288,-4.31535 6.37937,-4.31535c2.88649,0 5.36286,1.78847 6.37937,4.31535z"
          data-paper-data='{"glyphName":"e","glyphIndex":3,"word":1}'
          style="fill: rgb(255, 255, 255)"
        ></path>
        <path
          d="M300.41091,226.67155h-9.42985c-1.18976,0 -2.15768,-0.96792 -2.15768,-2.15768c0,-1.18976 0.96792,-2.15768 2.15768,-2.15768h9.42985c1.41224,0 2.55725,-1.14501 2.55725,-2.55725c0,-1.41224 -1.14501,-2.55725 -2.55725,-2.55725h-9.42985c-4.00976,0 -7.27217,3.26241 -7.27217,7.27217c0,4.00976 3.26241,7.27217 7.27217,7.27217h9.42985c1.18976,0 2.15768,0.96792 2.15768,2.15768c0,1.18976 -0.96792,2.15768 -2.15768,2.15768h-9.42985c-1.41224,0 -2.55725,1.14501 -2.55725,2.55725c0,1.41224 1.14501,2.55725 2.55725,2.55725h9.42985c4.00976,0 7.27217,-3.26241 7.27217,-7.27217c0,-4.00976 -3.26241,-7.27217 -7.27217,-7.27217z"
          data-paper-data='{"glyphName":"s","glyphIndex":4,"word":1}'
          style="fill: rgb(255, 255, 255)"
        ></path>
        <path
          d="M327.98819,236.10139c-3.89532,0 -7.06439,-3.16907 -7.06439,-7.06439v-6.67377h7.06439c1.41224,0 2.55725,-1.14501 2.55725,-2.55725c0,-1.41224 -1.14501,-2.55725 -2.55725,-2.55725h-7.06439v-6.08049c0,-1.41224 -1.14501,-2.55725 -2.55725,-2.55725c-1.41224,0 -2.55725,1.14501 -2.55725,2.55725v17.86876c0,6.71533 5.46356,12.17889 12.17889,12.17889c1.41224,0 2.55725,-1.14501 2.55725,-2.55725c0,-1.41224 -1.14501,-2.55725 -2.55725,-2.55725z"
          data-paper-data='{"glyphName":"t","glyphIndex":5,"word":1}'
          style="fill: rgb(255, 255, 255)"
        ></path>
        <path
          d="M341.71018,217.2417c-1.41224,0 -2.55725,1.14501 -2.55725,2.55725v18.85969c0,1.41224 1.14501,2.55725 2.55725,2.55725c1.41224,0 2.55725,-1.14501 2.55725,-2.55725v-18.85969c0,-1.41224 -1.14501,-2.55725 -2.55725,-2.55725zM339.34792,212.14639c0.06393,0.15344 0.14385,0.30367 0.23655,0.44112c0.0927,0.14065 0.19819,0.27171 0.31646,0.38998c0.11827,0.11827 0.24933,0.22376 0.38998,0.31646c0.13745,0.0927 0.28769,0.17261 0.44112,0.23655c0.15344,0.06393 0.31646,0.11188 0.47948,0.14384c0.16302,0.03516 0.33244,0.05115 0.49866,0.05115c0.16622,0 0.33564,-0.01598 0.49866,-0.05115c0.16302,-0.03197 0.32605,-0.07991 0.47948,-0.14384c0.15344,-0.06393 0.30367,-0.14385 0.44112,-0.23655c0.14065,-0.0927 0.27171,-0.19819 0.38998,-0.31646c0.11508,-0.11827 0.22376,-0.24933 0.31646,-0.38998c0.0927,-0.13745 0.17261,-0.28769 0.23655,-0.44112c0.06393,-0.15344 0.11188,-0.31646 0.14384,-0.47948c0.03516,-0.16302 0.05115,-0.33244 0.05115,-0.49866c0,-0.16622 -0.01598,-0.33564 -0.05115,-0.49866c-0.03197,-0.16302 -0.07991,-0.32605 -0.14384,-0.47948c-0.06393,-0.15344 -0.14385,-0.30367 -0.23655,-0.44112c-0.0927,-0.14065 -0.20138,-0.27171 -0.31646,-0.38998c-0.59456,-0.59136 -1.47681,-0.86627 -2.30791,-0.69685c-0.16302,0.03197 -0.32605,0.07991 -0.47948,0.14384c-0.15344,0.06393 -0.30367,0.14385 -0.44112,0.23655c-0.14065,0.0927 -0.27171,0.19819 -0.38998,0.31646c-0.11827,0.11827 -0.22376,0.24933 -0.31646,0.38998c-0.0927,0.13745 -0.17261,0.28769 -0.23655,0.44112c-0.06393,0.15344 -0.11188,0.31646 -0.14384,0.47948c-0.03516,0.16302 -0.05115,0.33244 -0.05115,0.49866c0,0.16622 0.01598,0.33564 0.05115,0.49866c0.03197,0.16302 0.07991,0.32605 0.14384,0.47948z"
          data-paper-data='{"glyphName":"i","glyphIndex":6,"word":1}'
          style="fill: rgb(255, 255, 255)"
        ></path>
        <path
          d="M369.7482,234.08852c-1.29812,1.29812 -3.02394,2.01287 -4.85973,2.01287c-3.78952,0 -6.8726,-3.08308 -6.8726,-6.8726c0,-3.78952 3.08308,-6.8726 6.8726,-6.8726c1.83578,0 3.56192,0.71475 4.85973,2.01287c0.9986,0.9986 2.61766,0.9986 3.61626,0c0.99892,-0.9986 0.99892,-2.61766 0,-3.61626c-2.2638,-2.26444 -5.274,-3.5111 -8.47599,-3.5111c-6.60984,0 -11.98709,5.37725 -11.98709,11.98709c0,6.60984 5.37725,11.98709 11.98709,11.98709c3.20199,0 6.21219,-1.24666 8.47631,-3.51078c0.99892,-0.9986 0.99892,-2.61766 0,-3.61626c-0.9986,-0.99892 -2.61798,-0.99892 -3.61658,-0.00032z"
          data-paper-data='{"glyphName":"c","glyphIndex":7,"word":1}'
          style="fill: rgb(255, 255, 255)"
        ></path>
        <path
          d="M398.95566,226.67155h-9.42985c-1.18976,0 -2.15768,-0.96792 -2.15768,-2.15768c0,-1.18976 0.96792,-2.15768 2.15768,-2.15768h9.42985c1.41224,0 2.55725,-1.14501 2.55725,-2.55725c0,-1.41224 -1.14501,-2.55725 -2.55725,-2.55725h-9.42985c-4.00976,0 -7.27217,3.26241 -7.27217,7.27217c0,4.00976 3.26241,7.27217 7.27217,7.27217h9.42985c1.18976,0 2.15768,0.96792 2.15768,2.15768c0,1.18976 -0.96792,2.15768 -2.15768,2.15768h-9.42985c-1.41224,0 -2.55725,1.14501 -2.55725,2.55725c0,1.41224 1.14501,2.55725 2.55725,2.55725h9.42985c4.00976,0 7.27217,-3.26241 7.27217,-7.27217c0,-4.00976 -3.26241,-7.27217 -7.27217,-7.27217z"
          data-paper-data='{"glyphName":"s","glyphIndex":8,"word":1}'
          style="fill: rgb(255, 255, 255)"
        ></path>
        <path
          d="M426.34114,217.2417c-6.60984,0 -11.98709,5.37725 -11.98709,11.98709c0,6.60984 5.37725,11.98709 11.98709,11.98709c6.60984,0 11.98709,-5.37725 11.98709,-11.98709c0,-6.60984 -5.37725,-11.98709 -11.98709,-11.98709zM426.34114,236.10139c-3.78952,0 -6.8726,-3.08308 -6.8726,-6.8726c0,-3.78952 3.08308,-6.8726 6.8726,-6.8726c3.78952,0 6.8726,3.08308 6.8726,6.8726c0,3.78952 -3.08308,6.8726 -6.8726,6.8726z"
          data-paper-data='{"glyphName":"o","glyphIndex":9,"word":1}'
          style="fill: rgb(255, 255, 255)"
        ></path>
        <path
          d="M459.09912,226.67155h-7.06439v-5.88167c0,-3.89532 3.16907,-7.06439 7.06439,-7.06439c1.41224,0 2.55725,-1.14501 2.55725,-2.55725c0,-1.41224 -1.14501,-2.55725 -2.55725,-2.55725c-6.71533,0 -12.17889,5.46356 -12.17889,12.17889v17.86876c0,1.41224 1.14501,2.55725 2.55725,2.55725c1.41224,0 2.55725,-1.14501 2.55725,-2.55725v-6.8726h7.06439c1.41224,0 2.55725,-1.14501 2.55725,-2.55725c0,-1.41224 -1.14501,-2.55725 -2.55725,-2.55725z"
          data-paper-data='{"glyphName":"f","glyphIndex":10,"word":1}'
          style="fill: rgb(255, 255, 255)"
        ></path>
        <path
          d="M482.44275,236.10139c-3.89532,0 -7.06439,-3.16907 -7.06439,-7.06439v-6.67377h7.06439c1.41224,0 2.55725,-1.14501 2.55725,-2.55725c0,-1.41224 -1.14501,-2.55725 -2.55725,-2.55725h-7.06439v-6.08049c0,-1.41224 -1.14501,-2.55725 -2.55725,-2.55725c-1.41224,0 -2.55725,1.14501 -2.55725,2.55725v17.86876c0,6.71533 5.46356,12.17889 12.17889,12.17889c1.41224,0 2.55725,-1.14501 2.55725,-2.55725c0,-1.41224 -1.14501,-2.55725 -2.55725,-2.55725z"
          data-paper-data='{"glyphName":"t","glyphIndex":11,"lastGlyphOfWord":true,"word":1}'
          style="fill: rgb(255, 255, 255)"
        ></path>
      </g>
      <g
        data-paper-data='{"fillRule":"nonzero","fillRuleOriginal":"nonzero","isIcon":true,"iconStyle":"standalone","selectedEffects":{"container":"hexagon_simple_outline3_rounded_upright","transformation":"","pattern":""},"bounds":{"x":65,"y":194.53586723121913,"width":73.09934018382677,"height":80.92826553756169},"widthRatioIconToContainer":"0.7429045795088904","heightRatioIconToContainer":"0.6310637430529299","relativeBoundsIconToContainer":{"top":"-0.020033339353405892","left":"0.008331908113533496"},"iconType":"initial","initialText":"m","rawInitialId":"806","suitableAsStandaloneIcon":true}'
        style="fill: rgb(255, 255, 255)"
      >
        <path
          d="M82.02634,258.84525c-0.68829,-0.18354 -1.3651,-0.68829 -2.03045,-1.51423c-0.66535,-0.82594 -1.22744,-1.83543 -1.68631,-3.02845c-0.50475,-1.51423 -1.0439,-3.80852 -1.61747,-6.88286c-0.57357,-3.07435 -0.92919,-5.62101 -1.06684,-7.63998c-0.04588,-0.6424 -0.10324,-1.4454 -0.17207,-2.409c-0.06883,-0.9636 -0.14913,-1.88131 -0.2409,-2.75314c-0.13766,-2.01897 -0.20648,-4.29031 -0.20648,-6.81403c0,-2.47783 0.09178,-4.74918 0.27532,-6.81403c0.18354,-2.66137 0.47033,-4.51975 0.86036,-5.57512c0.39003,-1.05537 1.08978,-1.81249 2.09928,-2.27134c0.59651,-0.27531 1.14714,-0.41297 1.65189,-0.41297c1.05537,0 2.01897,0.52769 2.89081,1.58306c0.09178,0.09178 0.1606,0.22943 0.20648,0.41297c0.04588,0.18354 0.09178,0.44739 0.13766,0.79153c0.04588,0.34414 0.0803,0.86036 0.10324,1.54864c0.02294,0.68829 0.03442,1.61747 0.03442,2.78756c0,1.17008 0,2.62696 0,4.37061c0,2.61548 0.01148,4.90978 0.03442,6.88287c0.02294,1.97309 0.03442,3.16611 0.03442,3.57909c0.04588,0.55063 0.09178,0.84889 0.13766,0.89478v0.06883c0.04588,0 0.11472,-0.11472 0.20648,-0.34414c0.09178,-0.18354 0.2409,-0.60799 0.44739,-1.27333c0.20648,-0.66535 0.42444,-1.41098 0.65387,-2.23693c2.20252,-7.43348 5.07038,-13.88044 8.60358,-19.34084c1.2848,-1.9272 2.30576,-3.17759 3.06287,-3.75116c0.75711,-0.57357 1.50276,-0.86036 2.23693,-0.86036c0.27532,0 0.55063,0.02294 0.82595,0.06883c0.73417,0.13766 1.33068,0.36709 1.78955,0.68829c0.45886,0.3212 0.87183,0.78006 1.23892,1.37658c1.23892,2.34017 2.06486,6.85992 2.47784,13.55924l0.13766,2.75314l0.89478,-1.72071c2.01897,-3.8544 4.06089,-5.7816 6.12574,-5.7816c0.36709,0 0.75711,0.06883 1.17008,0.20648c0.55063,0.22943 1.11274,0.6424 1.68631,1.23892c0.57357,0.59651 1.02096,1.23892 1.34216,1.92721c0.27532,0.68829 0.56211,1.58306 0.86036,2.68432c0.29826,1.10126 0.49327,2.04191 0.58505,2.82197c0.04588,0.41297 0.20648,1.2848 0.48181,2.61548c0.27532,1.33068 0.58505,2.76462 0.92919,4.30179c0.34414,1.53717 0.66535,2.81051 0.9636,3.81998c0.29826,1.00949 0.51621,1.51423 0.65387,1.51423h0.06883c0.78006,-1.10126 1.56012,-2.61548 2.34017,-4.54269c0.78006,-1.9272 1.46834,-3.78558 2.06486,-5.57512c0.82595,-2.06486 1.72071,-3.09729 2.68432,-3.09729h0.20648c0.73417,0.13766 1.10126,0.80299 1.10126,1.99603c0,0.50475 -0.06883,1.10126 -0.20648,1.78955c-0.36709,1.37658 -0.94066,3.31525 -1.72071,5.81601c-0.78006,2.50078 -1.62894,4.86389 -2.54666,7.08935c-0.91771,2.22546 -1.76661,3.63644 -2.54666,4.23296c-0.68829,0.45886 -1.37657,0.68829 -2.06486,0.68829c-0.55063,0 -1.10126,-0.13766 -1.65189,-0.41297c-1.2848,-0.55063 -2.34017,-1.90425 -3.16611,-4.06089c-0.41297,-1.05537 -0.89478,-2.59255 -1.4454,-4.61152c-0.55063,-2.01897 -0.94066,-3.6938 -1.17008,-5.02448c-0.50475,-2.79903 -0.86036,-4.74918 -1.06684,-5.85043c-0.20648,-1.10126 -0.35561,-1.65189 -0.44739,-1.65189c-0.13766,0 -0.44739,0.65387 -0.92919,1.96161c-0.48181,1.30774 -0.99802,2.81051 -1.54864,4.50827c-0.55063,1.69777 -0.98654,3.21201 -1.30774,4.54269c-0.18354,0.68829 -0.37856,1.35363 -0.58505,1.99603c-0.20648,0.6424 -0.35561,1.07832 -0.44739,1.30774c-0.6424,1.10126 -1.60601,1.65189 -2.89081,1.65189h-0.13766c-1.2848,0 -2.27134,-0.61945 -2.95963,-1.85837c-0.9636,-2.20252 -1.65189,-7.08935 -2.06486,-14.6605c-0.04588,-1.65189 -0.12618,-3.26936 -0.2409,-4.85242c-0.11472,-1.58306 -0.22943,-2.90227 -0.34414,-3.95765c-0.11472,-1.05537 -0.19502,-1.62894 -0.2409,-1.72071c-0.09176,0 -0.39003,0.45886 -0.89478,1.37658c-0.50475,0.91771 -1.06684,2.04191 -1.68631,3.3726c-0.61945,1.33068 -1.15862,2.5696 -1.61747,3.71674c-0.36709,0.9636 -0.75711,1.95015 -1.17008,2.95963c-0.18354,0.50475 -0.34414,0.91771 -0.48181,1.23892c-0.45885,1.23892 -0.92919,2.84492 -1.41098,4.818c-0.48181,1.97309 -0.8833,3.99206 -1.2045,6.05692c-0.36709,2.15663 -0.6424,3.8544 -0.82594,5.09332c-0.18354,1.23892 -0.33267,2.3287 -0.44739,3.26936c-0.11472,0.94066 -0.19502,2.05339 -0.2409,3.33819c-0.09176,1.14714 -0.18354,2.19104 -0.27531,3.13171c-0.09176,0.94066 -0.18354,1.57159 -0.27531,1.89279c-0.3212,1.10126 -0.8833,1.88131 -1.68631,2.34017c-0.80299,0.45886 -1.59453,0.68829 -2.37458,0.68829c-0.3212,0 -0.6424,-0.02294 -0.9636,-0.06883zM132.07255,210.41835c4.01786,2.31977 6.02679,5.79943 6.02679,10.43898v28.2853c0,4.6396 -2.00893,8.11923 -6.02679,10.4389l-24.49588,14.14266c-4.018,2.31993 -8.03596,2.31993 -12.0539,0l-24.4958,-14.14266c-4.01797,-2.31966 -6.02695,-5.7993 -6.02695,-10.4389v-28.2853c0,-4.63954 2.00898,-8.1192 6.02695,-10.43898l24.4958,-14.14266c4.01794,-2.31977 8.03591,-2.31977 12.0539,0zM68.11139,220.85732v28.2853c0,3.44192 1.49042,6.02342 4.47126,7.74452l24.4958,14.14266c2.98081,1.72082 5.96164,1.72082 8.94248,0l24.49593,-14.14266c2.98073,-1.72109 4.4711,-4.3026 4.4711,-7.74452v-28.2853c0,-3.44197 -1.49037,-6.02345 -4.4711,-7.74443l-24.49593,-14.14266c-2.98084,-1.72098 -5.96167,-1.72098 -8.94248,0l-24.4958,14.14266c-2.98084,1.72098 -4.47126,4.30247 -4.47126,7.74443z"
          data-paper-data='{"isPathIcon":true}'
          style="fill: rgb(255, 255, 255)"
        ></path>
      </g>
      <path
        d="M151.13115,275.46413v-80.92827h1.49677v80.92827z"
        data-paper-data='{"isShapeTextSeparator":true}'
        style="fill: rgb(255, 255, 255)"
      ></path>
    </g>
  </g>
</svg>
